<?xml version="1.0" encoding="utf-8"?>
<!DOCTYPE svg PUBLIC "-//W3C//DTD SVG 1.0//EN" "http://www.w3.org/TR/2001/REC-SVG-20010904/DTD/svg10.dtd">
<svg version="1.0" xmlns="http://www.w3.org/2000/svg" width="512px" height="512px" viewBox="0 0 512 512" preserveAspectRatio="xMidYMid meet">
 <g fill="#32965f">
  <path d="M249.25 494.65 c-51.45 -1.75 -100.55 -19.40 -141.50 -50.90 -9 -6.90 -12.65 -10.15 -22.65 -19.95 -12.40 -12.15 -21.05 -22.45 -29.90 -35.55 -23.55 -34.85 -37.25 -73.25 -40.75 -114.50 -0.75 -9.15 -0.75 -29.20 0 -37.75 1.95 -21.20 6.05 -40.50 12.70 -59.60 15.55 -44.50 46.40 -86.20 84.05 -113.70 2.80 -2.05 5.95 -4.35 7.05 -5.15 3 -2.20 15.20 -9.75 17.75 -11 1.25 -0.60 3.15 -1.65 4.25 -2.30 3.25 -2 16.80 -8.75 17.55 -8.75 0.40 0 2.10 -0.70 3.80 -1.55 4.40 -2.10 10.20 -4.45 13.05 -5.20 1.30 -0.40 2.70 -0.90 3 -1.20 0.35 -0.25 2.30 -0.95 4.35 -1.55 2.05 -0.60 4.90 -1.40 6.25 -1.80 1.40 -0.40 3.65 -0.95 5 -1.25 1.40 -0.25 2.95 -0.70 3.50 -0.95 0.55 -0.25 1.70 -0.55 2.50 -0.70 6.60 -1.10 10.10 -1.80 11.20 -2.25 1.55 -0.60 12.10 -2.35 18.30 -3.05 25.35 -2.85 50.20 -2 73.85 2.50 59.05 11.30 111.55 43.75 148 91.50 20.15 26.45 33.10 53.05 41.85 86 5.05 19 7.30 37.55 7.25 59.25 -0.05 22.50 -2.40 40.55 -8 61 -13.60 49.55 -40.35 90.70 -80.80 124.15 -4.65 3.80 -6.30 5 -17.15 12.30 -33.35 22.45 -69.70 35.95 -109.25 40.55 -6.75 0.80 -24.80 1.80 -29 1.65 -1.25 -0.05 -4.05 -0.15 -6.25 -0.25z m12.45 -63.85 c1.40 -0.65 4.45 -2.05 6.80 -3.10 26.35 -11.65 40.70 -34.10 34.75 -54.45 -3.05 -10.40 -8.50 -17.55 -20.15 -26.30 l-3.70 -2.75 -3.95 1.10 c-9.40 2.75 -22.35 2.90 -32.30 0.45 l-5.65 -1.40 -4.65 3.55 c-9.30 7.10 -15 14.30 -17.90 22.75 -2.20 6.30 -2.75 11.05 -2.05 16.15 2.50 17.25 15.50 31.60 38.10 42.05 3.70 1.70 7.05 3.10 7.45 3.10 0.40 0.05 1.85 -0.50 3.25 -1.15z m-82.70 -70.50 c3.70 -0.75 7.20 -1.55 7.75 -1.80 0.55 -0.25 2.45 -0.95 4.25 -1.55 7.60 -2.45 18.05 -8.25 25.50 -14.15 l3.20 -2.55 -5.45 -0.35 c-37.70 -2.45 -79.55 -28.35 -102.25 -63.20 -1.90 -2.95 -3.55 -5.50 -3.60 -5.70 -0.20 -0.45 -9.50 -2.65 -16.65 -3.95 -8.05 -1.45 -17.35 -2.20 -22.50 -1.85 -5.40 0.40 -16.80 2.20 -17.50 2.80 -0.30 0.25 -1.45 0.60 -2.60 0.80 -3.35 0.50 -3.35 0.60 -1.40 5.50 2.75 6.80 9.35 20.10 13.20 26.60 7.35 12.45 19.65 26.70 30.30 35.10 16.60 13.15 35.65 21.65 55 24.70 7.60 1.20 7.85 1.20 17.25 1.05 7.05 -0.10 10.05 -0.40 15.50 -1.45z m187.75 1 c21.35 -3 41.95 -12.15 58.75 -26.20 9.80 -8.20 20.20 -20.20 27.10 -31.35 6.05 -9.80 17.40 -33.45 16.50 -34.35 -0.50 -0.45 -8.05 -2.35 -12.85 -3.20 -8.40 -1.45 -25.75 -0.70 -35.50 1.55 -1.65 0.40 -5.15 1.15 -7.75 1.75 l-4.75 1.05 -2.25 3.80 c-5.50 9.30 -16.65 22.70 -25.30 30.35 -23.70 21.05 -54 34.40 -80.15 35.45 l-3.25 0.10 3.50 2.80 c10.45 8.45 21.30 13.65 34.75 16.65 10.35 2.30 21.75 2.90 31.20 1.60z m-97.40 -28.60 c13.85 -4 24.60 -12.80 32.40 -26.45 6.40 -11.20 9.55 -26.45 8.25 -40.05 -2.80 -30.40 -20.20 -58.95 -46.65 -76.55 l-4.90 -3.25 -2.85 1.85 c-21.40 14.15 -36.40 33.60 -44.10 57.35 -9.15 27.90 -4.60 54.10 12.35 71.95 7.70 8.10 14.75 12.65 23.35 14.95 8.30 2.30 14.75 2.35 22.15 0.20z m-57.90 -7.10 c-0.40 -0.55 -1.85 -2.50 -3.30 -4.40 -6.85 -9.05 -11.35 -19.80 -13.50 -32.20 -0.65 -3.50 -0.85 -7.75 -0.85 -16 0 -12.80 0.80 -19.15 3.95 -29.95 0.95 -3.35 1.75 -6.40 1.75 -6.70 0 -0.30 -1.50 -3.10 -3.35 -6.25 -11.50 -19.85 -28.25 -34.85 -52.10 -46.80 -13.25 -6.65 -26.70 -10.75 -41.35 -12.55 l-2.60 -0.35 -0.35 8.45 c-0.75 16.95 1.45 35.75 6.05 51.80 10.60 36.90 36.30 67.35 71.45 84.60 9.10 4.50 20.25 8.50 28.25 10.20 6.30 1.30 6.80 1.30 5.95 0.15z m102.05 -0.70 c24.70 -5.80 50.55 -21.35 67.75 -40.90 19.35 -21.95 30.15 -46.40 34 -77 1 -7.85 1.45 -23 0.90 -30.50 l-0.40 -5.75 -2 0.15 c-6.40 0.55 -19.80 3.95 -29.10 7.40 -6.15 2.25 -18.90 8.60 -25.15 12.45 -10.30 6.40 -21.50 16.05 -28.75 24.75 -3.70 4.45 -8.25 11.25 -11.25 16.65 l-2.10 3.95 1 3.30 c3.40 11 4.65 18.50 4.95 30.10 0.40 14.50 -1.30 25.15 -5.60 36.10 -2.65 6.70 -8.90 17.25 -11.50 19.40 -0.40 0.35 -0.75 0.85 -0.75 1.10 0 0.50 1.95 0.25 8 -1.20z m-103.45 -109.90 c8.40 -14.05 22.30 -28.30 35.80 -36.65 7.60 -4.70 9.20 -5.35 12.95 -5.35 3.05 0 3.65 0.20 7.90 2.55 11.90 6.70 23.50 16.50 31.85 26.95 3.10 3.85 10.05 14.35 10.95 16.45 l0.60 1.50 3.95 -5.90 3.95 -5.95 0 -4.25 c0 -4.80 -1.10 -14.05 -2.30 -19.20 -4.90 -21.40 -19.35 -46.05 -40.25 -68.45 -8.25 -8.85 -17 -16.50 -18.20 -15.80 -2.05 1.15 -11.40 9.95 -15.70 14.75 -15.90 17.90 -28.75 37.50 -35.25 53.85 -4.20 10.60 -7.50 25.50 -7.85 35.35 -0.10 3.05 -0.10 3.15 3 7.50 1.75 2.40 3.65 5.25 4.25 6.30 0.70 1.30 1.15 1.70 1.45 1.25 0.20 -0.35 1.50 -2.55 2.90 -4.90z m-22.50 -28 c2.95 -17.75 10.95 -36.80 22.40 -52.95 l2.25 -3.20 -1.75 -1.45 c-13.90 -11.70 -28 -19.85 -43.60 -25.20 l-3.35 -1.15 -1.20 2.35 c-8.95 17.70 -14.80 41.80 -14.80 60.90 l0 4.50 3.90 1.70 c10.80 4.60 24.05 13.05 32.10 20.40 2.45 2.25 2.75 2.40 2.90 1.40 0.10 -0.55 0.60 -3.85 1.15 -7.30z m152.50 0.45 c5.70 -4.35 12.60 -8.55 19.30 -11.75 8.30 -4 9.85 -4.80 10.30 -5.20 0.70 -0.60 -0.55 -16.90 -1.85 -24.55 -2.05 -12 -5.80 -23.65 -11.75 -36.45 -2.40 -5.25 -3.05 -6.25 -3.90 -6.15 -0.60 0.05 -4.80 1.60 -9.40 3.40 -8.95 3.50 -16.65 7.50 -24.30 12.55 -4.80 3.20 -13.95 10.50 -13.95 11.15 0 0.20 1.05 1.75 2.30 3.50 8.50 11.70 15.65 25.80 19.45 38.15 1.45 4.95 3.50 15 4 20 l0.35 3.40 2.80 -2.55 c1.55 -1.40 4.55 -3.85 6.65 -5.50z"/>
 </g>
 <g fill="#fefefe">
  <path d="M250 430.55 c-22.35 -10.35 -35.10 -23.80 -38.30 -40.45 -1.80 -9.55 0.10 -19.90 5.40 -28.80 2.65 -4.55 8.45 -10.50 14.60 -15.15 5.65 -4.25 4.90 -4.15 13.05 -1.90 4.60 1.30 5.70 1.40 13.75 1.40 8.05 0 9.15 -0.10 13.75 -1.40 8.25 -2.25 7.60 -2.35 12.90 1.60 11.05 8.35 16.55 15.60 19.65 26 1.70 5.80 1.85 14.80 0.30 20.70 -4.05 15.25 -16.75 28.55 -35.10 36.65 -2.35 1.05 -5.65 2.55 -7.35 3.35 -1.70 0.80 -3.60 1.45 -4.25 1.40 -0.65 0 -4.40 -1.55 -8.40 -3.40z"/>
  <path d="M151.50 363.20 c-23 -2.70 -43.30 -11.15 -61.75 -25.70 -10.65 -8.45 -22.95 -22.65 -30.35 -35.10 -5.60 -9.50 -15.40 -30.55 -15.40 -33.15 0 -0.90 1.15 -1.50 3.75 -2 1.10 -0.20 2.25 -0.50 2.50 -0.75 0.90 -0.70 12.50 -2.45 18.60 -2.80 9.45 -0.50 21.80 0.90 35.40 4.15 3.05 0.70 5.55 1.45 5.65 1.65 0.05 0.20 1.70 2.75 3.60 5.70 16.25 24.95 43.25 46.25 71.70 56.55 12.10 4.35 20.70 6.15 32.30 6.65 l7.25 0.35 -4.80 3.95 c-2.65 2.15 -6.50 5.05 -8.50 6.40 -4.40 2.95 -14.40 7.90 -18.95 9.35 -1.80 0.60 -3.70 1.30 -4.25 1.55 -0.55 0.25 -4.05 1.05 -7.75 1.80 -5.80 1.15 -8.20 1.35 -17 1.45 -5.65 0.10 -11.05 0.05 -12 -0.05z"/>
  <path d="M343.75 362.90 c-13 -1.45 -27.90 -6.70 -37.50 -13.20 -5.80 -3.90 -13.45 -10.35 -12.90 -10.90 0.15 -0.15 2.45 -0.30 5.10 -0.30 9 0 21.10 -2.35 31.65 -6.10 21.90 -7.75 43.35 -21.85 58.50 -38.55 5.60 -6.15 12.60 -15.45 15.90 -21 l2.25 -3.80 4.75 -1.05 c2.60 -0.60 6.10 -1.35 7.75 -1.75 6.90 -1.60 13.75 -2.25 24.05 -2.25 10.45 0 14.55 0.40 21.70 2.25 6.45 1.60 6.65 1.70 6.35 3.25 -0.95 4.55 -11.40 26.20 -17.20 35.60 -19.70 31.85 -50.95 52.85 -85.90 57.70 -5.55 0.75 -18.30 0.80 -24.50 0.10z"/>
  <path d="M252.95 335.50 c-11.90 -1.50 -21.10 -6.45 -30.60 -16.45 -19.50 -20.50 -22.60 -53.15 -8.15 -86.10 8 -18.20 22.65 -35 40.70 -46.65 l3.60 -2.35 5.65 3.70 c31.60 20.95 50.30 56.95 47.40 91.30 -1.20 14.55 -5.40 26 -13.35 36.35 -11.25 14.75 -28.35 22.35 -45.25 20.20z"/>
  <path d="M211.75 328.20 c-7.35 -1 -11.60 -2 -20 -4.75 -14.80 -4.90 -31.60 -14.35 -44.15 -24.90 -35.05 -29.35 -52.05 -72 -49.25 -123.45 l0.30 -6.10 2 0 c3.35 0 12.30 1.45 18.85 3.05 7.95 1.95 15.50 4.70 23.85 8.70 24.55 11.75 42.30 27.30 54 47.25 4.35 7.55 4.70 8.45 3.80 10.55 -1.40 3.25 -3.70 12.25 -4.70 18.20 -4.45 26.75 1.95 51.35 17.80 68.65 1.85 1.95 3.15 3.60 2.90 3.55 -0.20 -0.05 -2.65 -0.35 -5.40 -0.75z"/>
  <path d="M303.35 325.15 c10.05 -11.50 15.75 -24.65 17.95 -41.35 0.95 -7.25 0.70 -20.15 -0.55 -27.05 -1.05 -5.80 -3.65 -15.90 -4.80 -18.55 l-0.85 -2.10 2.85 -5.20 c9.20 -16.80 22.75 -30.90 40.05 -41.65 6.25 -3.85 19 -10.20 25.15 -12.45 10.55 -3.95 24.05 -7.20 30.85 -7.45 l3.25 -0.10 0.40 5.75 c0.55 7.85 0.05 25.90 -0.90 33.50 -3.90 30.70 -14.65 55.05 -34 77 -16.50 18.75 -40.85 33.80 -64.90 40.20 -5.50 1.45 -12.85 2.80 -15.50 2.80 l-1.95 0 2.95 -3.35z"/>
  <path d="M204.90 221.40 c-1 -1.75 -3.30 -5.25 -5.10 -7.75 l-3.35 -4.65 0.55 -6.55 c1.50 -18.25 6 -33.15 15 -49.35 10.50 -18.85 26.85 -39.55 40.40 -51 4.80 -4.10 5.45 -4.20 8.75 -1.70 7.45 5.70 17.35 15.80 25.90 26.45 13.15 16.40 22.35 32.10 27.10 46.45 3.60 10.90 4.65 16.50 5.35 28.65 l0.45 7.70 -3.15 4.55 c-1.75 2.50 -3.90 5.85 -4.80 7.45 -0.85 1.55 -1.70 2.85 -1.80 2.85 -0.10 0 -0.95 -1.50 -1.90 -3.35 -0.95 -1.90 -3.25 -5.75 -5.15 -8.65 -10 -15 -22.60 -26.75 -37.95 -35.45 -5.35 -3 -7 -3.15 -10.80 -1.25 -17.65 8.95 -35.10 26.30 -45.60 45.35 -1 1.85 -1.90 3.35 -1.95 3.35 -0.10 0 -0.95 -1.40 -1.95 -3.10z"/>
  <path d="M183.25 195.60 c-8.55 -8.10 -21.70 -16.60 -33.35 -21.60 l-3.90 -1.70 0 -6 c0 -20.50 4.65 -40.60 14.10 -60.90 1.15 -2.45 2.25 -4.40 2.45 -4.40 0.95 0 8.80 2.70 13.25 4.55 13.45 5.60 24.90 12.70 36.05 22.35 l3.15 2.70 -2.25 3.10 c-6.45 8.85 -14 22.65 -17.45 31.95 -3.85 10.35 -7.30 25.05 -7.30 31.15 0 1.15 -0.15 2.25 -0.35 2.35 -0.25 0.15 -2.20 -1.45 -4.40 -3.55z"/>
  <path d="M328.85 195.05 c-1.40 -19.70 -10.25 -41.55 -24.75 -61.25 -2.05 -2.80 -2.45 -3.60 -2 -4.20 1.40 -1.70 10.35 -8.80 14.80 -11.75 2.65 -1.75 7.35 -4.60 10.40 -6.25 6.90 -3.80 23.90 -10.60 26.50 -10.60 0.30 0 2 3.10 3.70 6.90 8.75 19.20 12.45 33.70 13.60 53.45 0.30 5.25 0.40 9.85 0.25 10.25 -0.15 0.35 -1.25 1.10 -2.40 1.70 -17.60 8.30 -26.20 13.80 -36.25 23.10 -1.80 1.70 -3.35 3.10 -3.40 3.10 -0.10 0 -0.30 -2 -0.45 -4.45z"/>
 </g>
</svg>
